<svg role="img" viewBox="0 0 24 24" xmlns="http://www.w3.org/2000/svg" fill="#9999FF"><path d="M19.75 0H4.25A4.25 4.25 0 000 4.25v15.5A4.25 4.25 0 004.25 24h15.5A4.25 4.25 0 0024 19.75V4.25A4.25 4.25 0 0019.75 0zM6.55 15.96H4.64V8.06h2.65c1.98 0 3.14.93 3.14 2.54 0 1.64-1.22 2.62-3.22 2.62h-.66v2.74zm7.22.14c-1.06 0-1.94-.23-2.56-.58v-1.72c.68.42 1.52.68 2.28.68.69 0 1.05-.24 1.05-.65 0-.38-.27-.59-1.2-.91-1.34-.47-1.97-1.05-1.97-2.07 0-1.27 1.02-2.06 2.63-2.06.88 0 1.65.2 2.2.5v1.67c-.6-.35-1.3-.57-1.98-.57-.63 0-.96.22-.96.58 0 .35.26.54 1.14.85 1.4.49 2.03 1.09 2.03 2.14 0 1.32-1.02 2.14-2.66 2.14zM5.79 9.58v2.12h.6c.87 0 1.38-.4 1.38-1.08 0-.67-.49-1.04-1.37-1.04h-.61z"/></svg>
