<svg role="img" viewBox="0 0 24 24" xmlns="http://www.w3.org/2000/svg" fill="#9999FF"><path d="M19.75 0H4.25A4.25 4.25 0 000 4.25v15.5A4.25 4.25 0 004.25 24h15.5A4.25 4.25 0 0024 19.75V4.25A4.25 4.25 0 0019.75 0zM7.04 16.01l-.58-1.82H3.97l-.57 1.82H1.5l2.71-7.96h1.98l2.72 7.96zm9.13 0h-1.85v-.72c-.41.57-1.03.86-1.83.86-1.56 0-2.71-1.26-2.71-3.17 0-1.93 1.14-3.2 2.71-3.2.78 0 1.38.28 1.78.79V7.87h1.9v8.14zM4.47 12.8h1.54L5.25 9.6zM14.3 14.97c.72 0 1.23-.57 1.23-1.59 0-1-.51-1.57-1.23-1.57-.73 0-1.23.57-1.23 1.57 0 1.01.5 1.59 1.23 1.59z"/></svg>
